<?xml version="1.0" standalone="no"?>
<!DOCTYPE svg PUBLIC "-//W3C//DTD SVG 20010904//EN"
 "http://www.w3.org/TR/2001/REC-SVG-20010904/DTD/svg10.dtd">
<svg version="1.0" xmlns="http://www.w3.org/2000/svg"
 width="412.000000pt" height="165.000000pt" viewBox="0 0 412.000000 165.000000"
 preserveAspectRatio="xMidYMid meet">
<metadata>
Created by potrace 1.13, written by Peter Selinger 2001-2015
</metadata>
<g transform="translate(0.000000,165.000000) scale(0.100000,-0.100000)"
fill="#000000" stroke="none">
<path d="M713 1643 c-34 -13 -10 -52 101 -162 63 -63 113 -118 111 -121 -3 -4
-43 -10 -90 -14 -129 -11 -264 -34 -311 -55 -58 -26 -121 -86 -150 -143 l-24
-47 0 -414 0 -413 26 -52 c50 -100 139 -152 299 -176 222 -32 339 -40 615 -40
275 0 389 7 615 40 124 18 207 56 265 121 69 79 72 96 68 545 -3 381 -4 394
-25 433 -28 53 -103 122 -159 146 -44 20 -275 59 -346 59 -20 0 -39 4 -42 8
-3 5 38 51 90 103 123 121 138 142 124 169 -6 11 -18 20 -28 20 -9 0 -80 -63
-157 -140 -77 -77 -143 -140 -147 -140 -3 0 -12 16 -18 35 l-12 35 -224 0
-224 0 -17 -35 c-9 -19 -19 -35 -22 -35 -4 0 -69 63 -146 140 -77 77 -144 140
-150 139 -5 0 -16 -3 -22 -6z m747 -433 c235 -11 420 -35 475 -61 48 -23 99
-69 123 -113 15 -27 17 -70 17 -341 0 -170 -4 -323 -8 -338 -12 -42 -81 -112
-135 -135 -89 -38 -295 -57 -637 -57 -511 0 -666 29 -751 141 l-29 37 -3 316
c-2 174 0 331 3 349 9 46 75 115 135 141 62 27 236 50 440 60 85 5 162 8 170
9 8 1 98 -3 200 -8z"/>
<path d="M2850 675 l0 -305 125 0 125 0 0 30 0 30 -90 0 -90 0 0 275 0 275
-35 0 -35 0 0 -305z"/>
<path d="M3200 675 l0 -305 30 0 30 0 0 305 0 305 -30 0 -30 0 0 -305z"/>
<path d="M3360 971 c0 -5 41 -140 90 -301 50 -161 90 -294 90 -296 0 -2 13 -4
28 -4 l28 0 92 298 c51 163 92 301 92 305 0 5 -14 7 -31 5 l-32 -3 -71 -232
c-39 -128 -73 -233 -76 -233 -3 0 -18 42 -33 93 -16 50 -49 156 -73 235 -45
140 -45 142 -75 142 -16 0 -29 -4 -29 -9z"/>
<path d="M3870 675 l0 -305 126 0 125 0 -3 28 -3 27 -92 3 -93 3 0 104 0 104
93 3 92 3 0 30 0 30 -92 3 -93 3 0 104 0 105 95 0 95 0 0 30 0 30 -125 0 -125
0 0 -305z"/>
</g>
</svg>
